static_grf.mot
version=1
nRows=30
nColumns 19
inDegrees=yes
endheader
time	1_ground_force_vx	1_ground_force_vy	1_ground_force_vz	1_ground_force_px	1_ground_force_py	1_ground_force_pz	1_ground_torque_x	1_ground_torque_y	1_ground_torque_z	2_ground_force_vx	2_ground_force_vy	2_ground_force_vz	2_ground_force_px	2_ground_force_py	2_ground_force_pz	2_ground_torque_x	2_ground_torque_y	2_ground_torque_z
            1.002500	            3.050532	          379.974367	          -34.284516	           -0.319619	            0.006178	           -0.398414	            0.009038	            1.125811	           -0.101580	           -4.422809	          391.021361	           80.706040	           -0.297839	            0.005532	           -0.732250	            0.137447	          -12.151697	           -2.508086
            1.003000	            3.187524	          379.795080	          -34.514906	           -0.319530	            0.006177	           -0.398308	            0.009906	            1.180262	           -0.107260	           -4.235369	          391.021703	           80.799816	           -0.298000	            0.005531	           -0.732120	            0.132131	          -12.198680	           -2.520707
            1.003500	            3.279600	          380.154843	          -34.330164	           -0.319434	            0.006177	           -0.398249	            0.010367	            1.201716	           -0.108522	           -4.563941	          391.204325	           80.894469	           -0.298117	            0.005532	           -0.732574	            0.142124	          -12.182314	           -2.519097
            1.004000	            3.324337	          379.976583	          -34.789610	           -0.319263	            0.006177	           -0.398170	            0.010698	            1.222747	           -0.111951	           -4.326951	          390.467878	           81.079453	           -0.298110	            0.005530	           -0.732161	            0.135167	          -12.197622	           -2.532799
            1.004500	            3.325164	          381.056407	          -34.372272	           -0.319131	            0.006176	           -0.397916	            0.010312	            1.181700	           -0.106592	           -4.422789	          391.021194	           80.752975	           -0.298296	            0.005530	           -0.732201	            0.137890	          -12.190908	           -2.517644
            1.005000	            3.645562	          380.696921	          -34.603891	           -0.318916	            0.006176	           -0.398024	            0.011785	            1.230632	           -0.111860	           -4.095525	          391.206686	           80.706557	           -0.298022	            0.005531	           -0.732179	            0.127813	          -12.208746	           -2.518684
            1.005500	            3.095934	          380.515732	          -34.419875	           -0.319137	            0.006176	           -0.398077	            0.009385	            1.153552	           -0.104346	           -4.325060	          389.916292	           80.842849	           -0.298207	            0.005529	           -0.731969	            0.135417	          -12.208258	           -2.531185
            1.006000	            3.370863	          379.975412	          -34.514588	           -0.319166	            0.006178	           -0.398436	            0.010673	            1.203121	           -0.109284	           -4.235930	          391.205007	           81.035121	           -0.298021	            0.005532	           -0.732457	            0.131668	          -12.160076	           -2.518867
            1.006500	            3.141810	          380.335506	          -34.420761	           -0.319679	            0.006176	           -0.398095	            0.009134	            1.105740	           -0.100071	           -4.329754	          391.205673	           80.753593	           -0.297992	            0.005531	           -0.732209	            0.134659	          -12.166852	           -2.511510
            1.007000	            3.004542	          380.154790	          -34.329481	           -0.319432	            0.006176	           -0.398105	            0.008962	            1.133991	           -0.102404	           -4.373116	          390.283400	           81.125752	           -0.298120	            0.005530	           -0.731916	            0.136974	          -12.224368	           -2.541002
            1.007500	            3.141616	          380.155603	          -34.513246	           -0.319465	            0.006177	           -0.398371	            0.009376	            1.134556	           -0.103003	           -4.327739	          390.653023	           80.798542	           -0.298067	            0.005531	           -0.732161	            0.134886	          -12.175771	           -2.518308
            1.008000	            3.324841	          380.336131	          -34.558788	           -0.319530	            0.006177	           -0.398255	            0.010685	            1.222260	           -0.111059	           -4.281533	          390.837226	           80.846115	           -0.298033	            0.005531	           -0.732165	            0.133439	          -12.180891	           -2.519662
            1.008500	            3.279094	          381.056792	          -34.463870	           -0.319189	            0.006176	           -0.397926	            0.010039	            1.166624	           -0.105513	           -4.605515	          389.731304	           80.795376	           -0.298398	            0.005529	           -0.731947	            0.143959	          -12.182173	           -2.525492
            1.009000	            3.233367	          379.795089	          -34.515020	           -0.319418	            0.006177	           -0.398159	            0.010302	            1.210040	           -0.109966	           -4.467604	          390.468207	           80.844880	           -0.298467	            0.005530	           -0.732294	            0.139550	          -12.196689	           -2.525276
            1.009500	            3.187264	          379.975770	          -34.605845	           -0.319340	            0.006177	           -0.398300	            0.009908	            1.181243	           -0.107580	           -4.422686	          391.020357	           80.987608	           -0.297979	            0.005531	           -0.732105	            0.138093	          -12.209177	           -2.528748
            1.010000	            3.004216	          380.696011	          -34.418874	           -0.319267	            0.006177	           -0.398356	            0.008751	            1.108962	           -0.100262	           -4.233251	          390.468216	           81.079414	           -0.297869	            0.005531	           -0.731976	            0.132232	          -12.196878	           -2.532641
            1.010500	            3.370798	          380.335943	          -34.513042	           -0.319396	            0.006176	           -0.398054	            0.010151	            1.145358	           -0.103934	           -4.229990	          389.548015	           80.935352	           -0.298182	            0.005529	           -0.731881	            0.132096	          -12.165014	           -2.527492
            1.011000	            3.095902	          380.696028	          -34.419102	           -0.319265	            0.006176	           -0.398060	            0.008741	            1.074862	           -0.097179	           -4.513145	          390.099924	           80.796650	           -0.298316	            0.005529	           -0.731907	            0.140426	          -12.137889	           -2.513973
            1.011500	            3.003697	          379.795831	          -34.697874	           -0.319460	            0.006177	           -0.398331	            0.009012	            1.139549	           -0.104108	           -4.374568	          390.652686	           80.845497	           -0.298171	            0.005530	           -0.732012	            0.137154	          -12.247972	           -2.534716
            1.012000	            2.958390	          379.975136	          -34.467712	           -0.319613	            0.006177	           -0.398187	            0.009211	            1.183043	           -0.107314	           -4.373342	          390.285242	           80.609535	           -0.298293	            0.005528	           -0.731725	            0.136218	          -12.156372	           -2.510778
            1.012500	            2.866671	          380.155353	          -34.466711	           -0.319484	            0.006176	           -0.398120	            0.008925	            1.183509	           -0.107303	           -4.328322	          390.836555	           80.986911	           -0.298159	            0.005531	           -0.732257	            0.135061	          -12.195638	           -2.527110
            1.013000	            3.142167	          380.875486	          -34.235019	           -0.319195	            0.006175	           -0.397871	            0.009682	            1.173548	           -0.105484	           -4.282157	          391.021032	           80.940628	           -0.298218	            0.005530	           -0.732260	            0.133834	          -12.220894	           -2.529702
            1.013500	            3.279225	          380.335729	          -34.466962	           -0.319551	            0.006176	           -0.398098	            0.010017	            1.161764	           -0.105282	           -4.144992	          391.942745	           80.803062	           -0.297953	            0.005533	           -0.732654	            0.129084	          -12.205954	           -2.516384
            1.014000	            3.141777	          380.515741	          -34.419988	           -0.319532	            0.006176	           -0.398126	            0.009392	            1.137510	           -0.102895	           -4.277463	          389.731651	           81.029885	           -0.298165	            0.005528	           -0.731635	            0.134131	          -12.221055	           -2.540904
            1.014500	            3.187494	          378.713880	          -34.611255	           -0.319919	            0.006180	           -0.398925	            0.010136	            1.204275	           -0.110061	           -4.422707	          391.020525	           80.940688	           -0.297901	            0.005532	           -0.732298	            0.137782	          -12.181577	           -2.521569
            1.015000	            2.866381	          379.254842	          -34.654000	           -0.319452	            0.006179	           -0.398680	            0.008579	            1.135068	           -0.103716	           -4.375171	          390.836386	           80.986931	           -0.298013	            0.005531	           -0.732157	            0.136548	          -12.197886	           -2.527578
            1.015500	            3.050190	          379.974957	          -34.422080	           -0.319468	            0.006178	           -0.398528	            0.009092	            1.132591	           -0.102602	           -4.094757	          391.021709	           80.940548	           -0.298222	            0.005531	           -0.732323	            0.127884	          -12.212098	           -2.527875
            1.016000	            3.187201	          379.074804	          -34.701421	           -0.319942	            0.006179	           -0.398650	            0.009881	            1.175168	           -0.107578	           -4.330336	          391.389144	           80.941962	           -0.298139	            0.005531	           -0.732353	            0.134675	          -12.172364	           -2.517328
            1.016500	            2.958196	          379.795233	          -34.560197	           -0.319705	            0.006177	           -0.398315	            0.009161	            1.176164	           -0.107027	           -4.049401	          391.391498	           80.566418	           -0.298115	            0.005530	           -0.732087	            0.126048	          -12.183031	           -2.507830
            1.017000	            3.233676	          379.974796	          -34.376683	           -0.319544	            0.006179	           -0.398669	            0.009778	            1.148924	           -0.103944	           -4.092140	          390.285420	           80.844064	           -0.298178	            0.005530	           -0.732035	            0.128429	          -12.248855	           -2.537239
